<svg id="svg" version="1.1" xmlns="http://www.w3.org/2000/svg" xmlns:xlink="http://www.w3.org/1999/xlink" width="400" height="79.95666305525461" viewBox="0, 0, 400,79.95666305525461"><g id="svgg"><path id="path0" d="M161.500 54.121 C 160.254 54.837,159.513 56.193,159.495 57.789 C 159.488 58.347,159.190 58.772,158.746 58.857 C 158.094 58.982,158.229 59.667,158.905 59.667 L 159.500 59.667 159.500 63.345 C 159.500 67.182,159.444 67.500,158.762 67.500 C 158.594 67.500,158.500 67.649,158.500 67.917 L 158.500 68.333 160.667 68.333 C 163.026 68.333,163.567 68.053,162.296 67.488 C 161.572 67.167,161.536 66.958,161.517 63.042 L 161.500 59.667 162.750 59.667 L 164.000 59.667 164.000 59.083 L 164.000 58.500 162.725 58.500 L 161.451 58.500 161.560 57.075 C 161.740 54.735,163.094 53.743,163.923 55.345 C 164.128 55.743,164.283 55.833,164.754 55.833 L 165.333 55.833 165.333 54.750 L 165.333 53.667 163.792 53.679 C 162.451 53.689,162.152 53.747,161.500 54.121 M192.167 54.083 C 192.167 54.384,192.256 54.500,192.488 54.500 C 193.198 54.500,193.500 55.248,193.500 57.009 L 193.500 58.640 192.876 58.468 C 189.518 57.540,186.705 59.801,186.674 63.450 C 186.636 67.955,189.714 69.947,192.875 67.463 L 193.500 66.972 193.500 67.742 L 193.500 68.513 195.042 68.465 C 196.770 68.411,197.374 67.896,196.192 67.484 C 195.432 67.219,195.429 67.192,195.369 60.208 L 195.312 53.667 193.740 53.667 C 192.173 53.667,192.167 53.668,192.167 54.083 M208.333 54.083 C 208.333 54.377,208.424 54.500,208.641 54.500 C 209.334 54.500,209.580 55.095,209.640 56.919 L 209.696 58.638 208.973 58.471 C 205.326 57.629,202.833 59.738,202.833 63.667 C 202.833 68.007,205.755 69.841,208.958 67.513 L 209.667 66.998 209.667 67.755 L 209.667 68.513 211.208 68.465 C 212.729 68.417,212.750 68.411,212.750 68.000 C 212.750 67.690,212.650 67.569,212.361 67.528 C 211.560 67.415,211.500 66.888,211.500 60.005 L 211.500 53.667 209.917 53.667 C 208.339 53.667,208.333 53.668,208.333 54.083 M224.167 54.083 C 224.167 54.387,224.256 54.500,224.496 54.500 C 225.300 54.500,225.341 54.845,225.294 61.266 L 225.250 67.250 224.708 67.488 C 223.430 68.051,223.972 68.333,226.333 68.333 C 228.398 68.333,228.500 68.317,228.500 67.996 C 228.500 67.789,228.338 67.597,228.080 67.499 C 227.376 67.231,227.333 66.806,227.333 60.072 L 227.333 53.667 225.750 53.667 C 224.172 53.667,224.167 53.668,224.167 54.083 M368.333 54.083 C 368.333 54.384,368.423 54.500,368.655 54.500 C 369.364 54.500,369.667 55.248,369.667 57.005 L 369.667 58.631 368.958 58.467 C 365.445 57.655,362.838 59.820,362.834 63.551 C 362.830 67.995,365.901 69.931,369.042 67.463 L 369.667 66.972 369.667 67.742 L 369.667 68.513 371.208 68.465 C 372.944 68.411,373.541 67.896,372.349 67.481 C 371.555 67.204,371.502 66.725,371.501 59.875 L 371.500 53.667 369.917 53.667 C 368.339 53.667,368.333 53.668,368.333 54.083 M384.167 54.083 C 384.167 54.377,384.257 54.500,384.474 54.500 C 385.374 54.500,385.413 54.750,385.465 60.823 C 385.515 66.790,385.469 67.227,384.753 67.499 C 384.495 67.597,384.333 67.789,384.333 67.996 C 384.333 68.317,384.436 68.333,386.417 68.333 C 388.420 68.333,388.500 68.320,388.500 67.984 C 388.500 67.773,388.366 67.600,388.160 67.547 C 387.376 67.342,387.333 66.955,387.333 60.092 L 387.333 53.667 385.750 53.667 C 384.172 53.667,384.167 53.668,384.167 54.083 M115.362 54.695 C 115.397 54.944,115.546 55.102,115.779 55.135 C 116.420 55.226,116.500 55.912,116.500 61.333 C 116.500 66.754,116.420 67.440,115.779 67.532 C 115.545 67.565,115.397 67.722,115.361 67.974 L 115.306 68.365 119.111 68.305 C 122.796 68.247,122.943 68.232,123.750 67.823 C 126.291 66.533,126.419 62.642,123.962 61.339 L 123.202 60.936 123.909 60.488 C 126.186 59.044,126.236 55.926,124.000 54.799 C 123.295 54.444,123.012 54.418,119.278 54.364 L 115.307 54.307 115.362 54.695 M301.000 54.750 C 301.000 54.979,301.094 55.168,301.208 55.169 C 301.492 55.173,302.845 57.146,304.235 59.583 C 304.340 59.767,304.630 60.234,304.879 60.622 C 305.447 61.503,305.589 61.090,303.732 63.951 C 302.003 66.614,301.463 67.284,300.863 67.517 C 300.621 67.611,300.497 67.777,300.532 67.959 C 300.623 68.435,304.667 68.491,304.667 68.016 C 304.667 67.836,304.518 67.642,304.334 67.583 C 303.747 67.397,303.935 65.333,304.539 65.333 C 304.609 65.333,304.667 65.260,304.667 65.170 C 304.667 65.080,304.929 64.596,305.250 64.095 C 305.571 63.593,305.833 63.104,305.833 63.008 C 305.833 62.592,306.288 62.905,306.736 63.630 C 308.375 66.281,308.702 67.371,307.917 67.568 C 307.648 67.636,307.500 67.790,307.500 68.003 C 307.500 68.317,307.619 68.333,309.833 68.333 C 312.417 68.333,312.748 68.159,311.672 67.364 C 311.226 67.034,309.833 65.175,309.833 64.910 C 309.833 64.850,309.421 64.168,308.917 63.395 C 308.412 62.621,308.000 61.922,308.000 61.841 C 308.000 61.761,307.931 61.669,307.846 61.639 C 306.999 61.334,310.307 55.656,311.625 55.152 C 311.843 55.068,312.000 54.867,312.000 54.671 C 312.000 54.351,311.897 54.333,310.000 54.333 C 307.915 54.333,307.327 54.628,308.333 55.167 C 308.827 55.431,308.747 56.053,308.058 57.308 C 307.128 59.002,306.607 59.738,306.523 59.478 C 306.483 59.353,306.405 59.212,306.350 59.167 C 306.249 59.082,306.191 58.986,305.245 57.320 C 304.389 55.812,304.363 55.332,305.125 55.095 C 305.344 55.026,305.500 54.844,305.500 54.655 C 305.500 54.353,305.363 54.333,303.250 54.333 L 301.000 54.333 301.000 54.750 M231.167 55.583 L 231.167 56.667 232.167 56.667 L 233.167 56.667 233.167 55.583 L 233.167 54.500 232.167 54.500 L 231.167 54.500 231.167 55.583 M280.333 55.583 L 280.333 56.667 281.417 56.667 L 282.500 56.667 282.500 55.583 L 282.500 54.500 281.417 54.500 L 280.333 54.500 280.333 55.583 M122.072 55.685 C 122.904 55.987,123.251 56.597,123.245 57.750 C 123.236 59.671,122.397 60.366,119.958 60.471 L 118.500 60.533 118.500 58.017 L 118.500 55.500 120.030 55.500 C 120.871 55.500,121.790 55.583,122.072 55.685 M148.000 56.530 C 148.000 57.673,147.317 58.815,146.625 58.828 C 145.915 58.841,146.284 59.667,147.000 59.667 L 147.667 59.667 147.667 62.394 C 147.667 66.388,147.934 67.547,148.991 68.141 C 150.189 68.815,151.786 68.537,152.962 67.451 C 153.408 67.039,152.938 66.245,152.467 66.615 C 151.996 66.984,151.145 67.167,150.775 66.978 C 149.887 66.524,149.841 66.321,149.837 62.875 L 149.833 59.667 151.417 59.667 L 153.000 59.667 153.000 59.083 L 153.000 58.500 151.417 58.500 L 149.833 58.500 149.833 57.250 L 149.833 56.000 148.917 56.000 L 148.000 56.000 148.000 56.530 M131.000 58.478 C 127.197 59.439,126.649 66.530,130.250 68.186 C 131.841 68.918,133.992 68.510,135.492 67.192 C 136.208 66.563,136.211 66.556,135.903 66.196 C 135.510 65.737,135.407 65.741,134.808 66.246 C 132.713 68.008,130.000 66.823,130.000 64.146 L 130.000 63.333 133.160 63.333 L 136.321 63.333 136.218 62.208 C 135.934 59.117,133.985 57.724,131.000 58.478 M139.711 58.743 C 138.615 59.253,138.168 59.932,138.167 61.088 C 138.166 62.462,138.522 62.834,140.972 64.023 C 142.448 64.739,142.728 64.940,142.933 65.430 C 143.821 67.556,140.327 68.442,139.394 66.328 C 139.117 65.701,139.052 65.654,138.506 65.700 L 137.917 65.750 137.917 66.915 L 137.917 68.081 138.750 68.274 C 144.753 69.668,147.679 65.197,142.422 62.662 C 140.064 61.524,139.484 60.658,140.441 59.701 C 141.224 58.919,143.665 59.618,143.666 60.625 C 143.667 60.752,143.895 60.833,144.250 60.833 L 144.833 60.833 144.833 59.689 L 144.833 58.545 144.060 58.439 C 142.308 58.199,140.626 58.317,139.711 58.743 M167.833 58.432 C 165.109 59.435,163.844 62.788,165.011 65.909 C 165.899 68.281,168.789 69.267,171.280 68.047 C 174.387 66.526,174.637 60.486,171.662 58.841 C 170.931 58.437,168.520 58.179,167.833 58.432 M178.833 58.435 C 176.571 59.291,175.789 60.586,175.773 63.500 C 175.750 67.622,178.638 69.688,182.213 68.107 C 185.416 66.690,185.718 60.543,182.671 58.764 C 182.098 58.429,179.449 58.202,178.833 58.435 M217.418 58.456 C 214.408 59.217,213.256 65.031,215.639 67.430 C 217.195 68.997,220.121 68.876,222.040 67.166 L 222.750 66.533 222.349 66.183 C 221.856 65.752,221.925 65.747,221.246 66.264 C 219.273 67.769,217.052 67.088,216.528 64.816 C 216.156 63.206,215.892 63.333,219.603 63.333 L 222.872 63.333 222.755 62.208 C 222.436 59.146,220.387 57.705,217.418 58.456 M230.542 58.454 C 229.837 58.541,229.804 59.045,230.484 59.327 C 231.741 59.847,231.450 67.667,230.174 67.667 C 230.078 67.667,230.000 67.817,230.000 68.000 C 230.000 68.316,230.111 68.333,232.167 68.333 C 234.197 68.333,234.333 68.313,234.333 68.011 C 234.333 67.824,234.177 67.639,233.959 67.570 C 233.206 67.331,233.178 67.152,233.172 62.625 L 233.167 58.333 232.125 58.360 C 231.552 58.375,230.840 58.417,230.542 58.454 M248.627 58.490 C 244.863 59.703,244.466 66.728,248.077 68.236 C 249.648 68.893,251.896 68.433,253.205 67.188 L 253.885 66.541 253.551 66.183 C 253.249 65.858,252.667 65.835,252.667 66.147 C 252.667 66.208,252.423 66.380,252.125 66.531 C 249.626 67.791,247.672 66.627,247.668 63.875 L 247.667 63.333 250.857 63.333 L 254.048 63.333 253.938 62.151 C 253.659 59.151,251.403 57.595,248.627 58.490 M256.125 58.455 C 255.328 58.538,255.288 58.981,256.045 59.333 L 256.583 59.583 256.583 63.414 L 256.583 67.246 256.125 67.465 C 254.929 68.039,255.509 68.333,257.833 68.333 C 259.864 68.333,260.000 68.313,260.000 68.011 C 260.000 67.826,259.844 67.640,259.633 67.573 C 258.868 67.330,258.833 67.181,258.834 64.137 C 258.834 61.382,258.851 61.230,259.209 60.820 C 260.146 59.743,261.058 59.591,261.600 60.419 C 261.812 60.743,262.014 60.833,262.519 60.833 L 263.167 60.833 263.167 59.583 L 263.167 58.333 262.161 58.333 C 260.937 58.333,260.123 58.652,259.270 59.466 L 258.624 60.083 258.721 59.208 L 258.818 58.333 257.784 58.361 C 257.215 58.377,256.469 58.419,256.125 58.455 M279.875 58.454 C 279.209 58.537,279.123 59.078,279.732 59.355 C 280.926 59.899,280.873 67.233,279.673 67.547 C 279.468 67.600,279.333 67.773,279.333 67.984 C 279.333 68.321,279.412 68.333,281.500 68.333 C 283.549 68.333,283.667 68.315,283.667 68.003 C 283.667 67.789,283.519 67.636,283.244 67.567 C 282.418 67.360,282.333 66.881,282.333 62.425 L 282.333 58.333 281.375 58.360 C 280.848 58.375,280.173 58.417,279.875 58.454 M285.625 58.455 C 284.923 58.528,284.728 59.058,285.332 59.250 C 286.137 59.505,286.167 59.646,286.167 63.254 C 286.167 66.776,286.067 67.400,285.480 67.554 C 285.299 67.601,285.167 67.783,285.167 67.984 C 285.167 68.320,285.247 68.333,287.262 68.333 C 289.336 68.333,289.356 68.330,289.303 67.960 C 289.273 67.746,289.109 67.560,288.921 67.524 C 288.258 67.398,288.178 67.038,288.172 64.197 C 288.166 61.058,288.226 60.854,289.369 60.123 C 290.684 59.281,291.881 59.986,292.061 61.708 C 292.380 64.758,292.128 67.141,291.451 67.467 C 290.280 68.032,290.849 68.333,293.083 68.333 C 295.322 68.333,295.889 68.030,294.708 67.466 L 294.250 67.246 294.145 63.915 C 294.087 62.083,293.985 60.380,293.918 60.132 C 293.373 58.101,290.750 57.689,288.833 59.334 L 288.250 59.834 288.199 59.084 L 288.148 58.333 287.199 58.361 C 286.677 58.377,285.969 58.419,285.625 58.455 M316.000 58.442 C 312.184 59.699,311.666 66.464,315.256 68.152 C 317.467 69.192,322.140 67.416,320.677 66.093 C 320.368 65.813,320.331 65.818,319.791 66.230 C 317.851 67.710,315.437 67.090,315.107 65.027 C 315.053 64.691,314.960 64.173,314.900 63.875 L 314.792 63.333 318.063 63.333 L 321.333 63.333 321.333 62.824 C 321.333 59.605,318.797 57.521,316.000 58.442 M326.090 58.455 C 322.167 59.452,321.948 67.149,325.810 68.307 C 329.385 69.378,332.173 67.109,332.165 63.135 C 332.158 59.618,329.518 57.584,326.090 58.455 M343.958 58.455 C 343.257 58.528,343.062 59.058,343.666 59.250 C 344.473 59.506,344.500 59.640,344.500 63.332 C 344.500 67.117,344.475 67.288,343.894 67.509 C 343.659 67.598,343.500 67.794,343.500 67.996 C 343.500 68.317,343.603 68.333,345.583 68.333 C 347.564 68.333,347.667 68.317,347.667 67.996 C 347.667 67.792,347.506 67.597,347.260 67.504 C 346.553 67.235,346.474 66.843,346.531 63.895 L 346.583 61.142 347.285 60.488 C 348.143 59.688,348.647 59.648,349.224 60.333 C 349.565 60.738,349.774 60.833,350.323 60.833 L 351.000 60.833 351.000 59.583 L 351.000 58.333 349.873 58.333 C 348.641 58.333,347.715 58.692,347.050 59.428 C 346.550 59.980,346.500 59.948,346.500 59.083 L 346.500 58.333 345.542 58.361 C 345.015 58.377,344.302 58.419,343.958 58.455 M355.000 58.435 C 352.705 59.304,351.931 60.581,351.931 63.500 C 351.931 67.631,354.808 69.686,358.379 68.107 C 361.716 66.631,361.893 60.597,358.655 58.676 C 358.243 58.431,355.490 58.250,355.000 58.435 M377.174 58.596 C 374.630 59.700,373.559 63.647,375.021 66.535 C 376.216 68.898,379.733 69.235,382.000 67.205 L 382.750 66.533 382.349 66.183 C 381.860 65.755,381.809 65.753,381.471 66.148 C 379.718 68.196,376.500 66.789,376.500 63.975 L 376.500 63.333 379.688 63.333 L 382.876 63.333 382.758 62.134 C 382.572 60.239,381.543 58.684,380.315 58.438 C 379.402 58.255,377.770 58.338,377.174 58.596 M234.668 58.792 C 234.668 58.952,234.875 59.201,235.126 59.344 C 235.442 59.525,235.695 59.911,235.945 60.594 C 236.143 61.138,236.545 62.221,236.836 63.000 C 237.128 63.779,237.682 65.317,238.067 66.417 L 238.767 68.417 239.444 68.467 C 240.066 68.513,240.141 68.473,240.379 67.967 C 240.521 67.664,241.019 66.609,241.485 65.621 C 241.952 64.633,242.333 63.788,242.333 63.742 C 242.333 63.274,244.415 59.456,244.755 59.301 C 245.862 58.797,245.274 58.500,243.167 58.500 C 241.011 58.500,240.484 58.783,241.667 59.307 C 242.341 59.605,242.338 60.399,241.659 61.935 C 241.380 62.567,241.087 63.233,241.009 63.417 C 240.665 64.222,240.216 65.283,240.059 65.662 C 239.899 66.045,239.864 66.000,239.538 64.995 C 239.346 64.402,238.923 63.167,238.596 62.250 C 237.843 60.133,237.826 59.605,238.500 59.307 C 239.715 58.769,239.160 58.500,236.833 58.500 C 234.881 58.500,234.667 58.529,234.668 58.792 M263.500 58.822 C 263.500 59.001,263.653 59.193,263.842 59.253 C 264.237 59.378,265.042 61.028,265.833 63.333 C 265.944 63.654,266.092 64.067,266.163 64.250 C 267.831 68.556,267.801 68.383,267.078 69.583 C 266.113 71.182,265.293 71.631,264.795 70.833 C 264.656 70.611,264.406 70.500,264.043 70.500 L 263.500 70.500 263.500 71.583 L 263.500 72.667 264.125 72.696 C 266.878 72.824,267.430 72.303,269.439 67.676 C 269.581 67.350,269.797 66.893,269.920 66.661 C 270.043 66.428,270.294 65.856,270.478 65.390 C 271.649 62.419,273.129 59.510,273.573 59.308 C 274.695 58.797,274.116 58.500,272.000 58.500 C 270.111 58.500,270.000 58.519,270.000 58.833 C 270.000 59.017,270.101 59.167,270.224 59.167 C 271.062 59.167,271.175 60.423,270.477 61.979 C 270.086 62.851,269.900 63.283,269.236 64.865 L 268.768 65.979 268.397 64.865 C 268.193 64.252,267.784 63.112,267.487 62.333 C 266.699 60.261,266.662 59.604,267.318 59.313 C 268.549 58.769,268.004 58.500,265.667 58.500 C 263.636 58.500,263.500 58.520,263.500 58.822 M333.833 59.917 L 333.833 61.333 334.396 61.333 C 334.864 61.333,334.994 61.249,335.165 60.838 C 335.639 59.694,336.001 59.500,337.659 59.500 C 339.272 59.500,339.340 59.539,338.846 60.172 C 338.670 60.398,337.808 61.671,336.930 63.000 C 335.119 65.745,335.192 65.637,334.413 66.738 C 334.094 67.189,333.833 67.733,333.833 67.946 L 333.833 68.333 337.833 68.333 L 341.833 68.333 341.833 66.750 L 341.833 65.167 341.330 65.167 C 340.935 65.167,340.787 65.266,340.647 65.625 C 339.990 67.306,339.791 67.409,337.427 67.302 C 336.377 67.255,336.296 67.226,336.534 66.988 C 336.679 66.844,337.791 65.194,339.005 63.322 C 340.219 61.449,341.266 59.879,341.331 59.833 C 341.526 59.696,341.833 59.041,341.833 58.761 C 341.833 58.531,341.352 58.500,337.833 58.500 L 333.833 58.500 333.833 59.917 M133.131 59.593 C 133.623 59.939,133.931 60.576,134.072 61.542 L 134.187 62.333 132.072 62.333 L 129.956 62.333 130.050 61.759 C 130.356 59.873,131.940 58.760,133.131 59.593 M170.092 59.599 C 171.779 60.399,172.090 65.399,170.550 66.939 C 168.778 68.710,166.833 66.804,166.833 63.297 C 166.833 60.183,168.157 58.680,170.092 59.599 M181.172 59.586 C 183.622 60.853,182.894 67.500,180.306 67.500 C 178.637 67.500,177.925 66.257,177.920 63.333 C 177.915 60.055,179.205 58.569,181.172 59.586 M192.691 59.767 C 193.902 60.846,193.868 65.315,192.641 66.442 C 190.381 68.519,187.992 65.299,189.004 61.539 C 189.531 59.580,191.447 58.659,192.691 59.767 M208.849 59.764 C 209.772 60.599,210.068 64.678,209.291 65.850 C 208.497 67.049,206.920 67.426,205.935 66.652 C 204.456 65.488,204.777 60.415,206.381 59.595 C 207.069 59.244,208.373 59.333,208.849 59.764 M219.865 59.693 C 220.282 60.145,220.485 60.643,220.597 61.485 L 220.710 62.333 218.605 62.333 C 216.242 62.333,216.317 62.385,216.764 61.068 C 217.284 59.535,219.013 58.769,219.865 59.693 M251.276 59.932 C 251.474 60.181,251.687 60.720,251.748 61.130 C 251.810 61.540,251.900 61.979,251.948 62.105 C 252.020 62.291,251.634 62.333,249.851 62.333 C 248.650 62.333,247.668 62.277,247.669 62.208 C 247.687 61.345,248.705 59.560,249.249 59.438 C 250.034 59.262,250.912 59.476,251.276 59.932 M318.487 59.854 C 318.814 60.255,319.167 61.362,319.167 61.990 C 319.167 62.318,319.075 62.333,317.076 62.333 L 314.985 62.333 315.098 61.708 C 315.474 59.631,317.429 58.562,318.487 59.854 M328.523 59.595 C 330.892 60.820,330.220 67.500,327.727 67.500 C 325.999 67.500,325.262 66.283,325.255 63.417 C 325.247 60.089,326.544 58.572,328.523 59.595 M357.246 59.529 C 359.222 60.429,359.368 66.004,357.448 67.175 C 355.494 68.366,354.083 66.755,354.084 63.333 C 354.084 60.084,355.288 58.636,357.246 59.529 M368.858 59.767 C 370.069 60.846,370.035 65.315,368.808 66.442 C 367.853 67.320,366.168 67.240,365.634 66.292 C 364.441 64.176,364.987 60.164,366.559 59.490 C 367.120 59.249,368.458 59.411,368.858 59.767 M380.014 59.849 C 380.195 60.058,380.377 60.383,380.420 60.572 C 380.462 60.762,380.565 61.235,380.648 61.625 L 380.798 62.333 378.649 62.333 C 377.244 62.333,376.500 62.272,376.500 62.156 C 376.500 61.720,377.051 60.358,377.386 59.969 C 378.024 59.226,379.418 59.163,380.014 59.849 M122.173 62.042 C 123.375 62.648,123.859 64.268,123.264 65.691 C 122.790 66.825,122.055 67.167,120.086 67.167 L 118.500 67.167 118.500 64.417 L 118.500 61.667 119.965 61.667 C 121.152 61.667,121.570 61.738,122.173 62.042 " stroke="none" fill="#040404" fill-rule="evenodd"></path><path id="path1" d="M0.111 0.111 C 0.050 0.172,0.000 5.306,0.000 11.520 L 0.000 22.817 0.625 24.031 C 0.969 24.699,1.430 25.415,1.649 25.623 C 1.869 25.830,2.004 26.000,1.949 26.000 C 1.894 26.000,2.014 26.170,2.216 26.378 C 2.418 26.586,2.733 26.967,2.917 27.225 C 3.235 27.672,3.427 27.918,4.008 28.615 C 5.912 30.903,5.825 29.685,5.838 54.160 C 5.847 72.113,5.886 75.638,6.083 76.107 C 6.211 76.415,6.281 76.667,6.238 76.667 C 6.152 76.667,6.644 77.470,6.915 77.771 C 7.007 77.875,7.191 78.114,7.322 78.304 C 7.453 78.494,7.622 78.611,7.697 78.565 C 7.772 78.518,7.833 78.550,7.833 78.635 C 7.833 79.693,12.694 79.676,13.369 78.614 C 13.438 78.506,13.496 78.485,13.497 78.568 C 13.502 78.854,14.305 77.781,14.720 76.933 C 15.457 75.427,15.525 73.035,15.468 50.583 L 15.417 30.250 17.122 28.500 C 18.060 27.537,18.957 26.563,19.115 26.333 C 19.274 26.104,19.492 25.826,19.601 25.714 C 20.833 24.450,21.011 22.973,21.016 14.008 C 21.021 4.468,20.788 0.167,20.268 0.167 C 19.920 0.167,18.836 0.828,18.834 1.042 C 18.834 1.110,18.753 1.167,18.655 1.167 C 17.933 1.167,17.888 1.698,17.753 11.833 C 17.636 20.622,17.610 20.745,16.296 18.542 C 15.307 16.882,15.175 15.644,15.162 7.917 C 15.151 1.080,15.189 1.346,14.164 0.797 C 13.373 0.372,13.356 0.371,13.021 0.683 C 12.834 0.857,12.615 1.000,12.535 1.000 C 12.327 1.000,12.015 1.676,11.996 2.167 C 11.987 2.396,11.942 6.202,11.896 10.625 L 11.813 18.667 10.513 18.667 L 9.213 18.667 9.112 11.625 C 8.944 0.001,8.962 0.167,7.917 0.167 C 7.275 0.167,7.180 0.220,6.956 0.708 C 6.025 2.740,5.853 4.362,5.847 11.167 C 5.841 18.385,5.824 18.473,4.306 19.263 C 3.867 19.491,3.860 19.486,3.770 18.872 C 3.466 16.812,3.320 13.905,3.261 8.750 C 3.170 0.831,3.290 1.670,2.178 1.147 C 1.668 0.906,1.012 0.609,0.720 0.486 C 0.429 0.363,0.227 0.204,0.272 0.131 C 0.371 -0.029,0.264 -0.042,0.111 0.111 M77.917 0.710 C 77.458 1.006,77.058 1.305,77.028 1.374 C 76.997 1.443,76.904 1.500,76.821 1.500 C 76.481 1.500,71.650 5.990,71.973 6.005 C 72.034 6.008,71.968 6.102,71.827 6.214 C 71.685 6.325,71.348 6.717,71.078 7.083 C 70.807 7.450,70.544 7.787,70.494 7.833 C 69.968 8.311,67.385 13.009,67.271 13.693 C 67.251 13.816,67.151 14.067,67.050 14.250 C 66.949 14.433,66.867 14.643,66.867 14.715 C 66.867 14.788,66.791 15.051,66.698 15.299 C 66.604 15.547,66.403 16.350,66.251 17.083 C 66.099 17.817,65.912 18.717,65.835 19.083 C 65.758 19.450,65.681 20.462,65.663 21.333 C 65.646 22.204,65.583 25.303,65.524 28.220 C 65.436 32.584,65.512 41.040,65.670 44.333 C 65.706 45.099,66.433 47.282,66.752 47.583 C 66.849 47.675,67.294 48.294,67.741 48.958 C 68.189 49.623,68.630 50.167,68.722 50.167 C 68.814 50.167,68.843 50.212,68.788 50.268 C 68.732 50.323,68.832 50.525,69.010 50.715 C 70.820 52.659,70.878 53.104,70.862 65.000 C 70.855 70.159,70.920 74.195,71.020 74.833 C 71.113 75.429,71.193 76.142,71.199 76.417 C 71.205 76.692,71.324 77.048,71.464 77.208 C 71.604 77.369,71.654 77.500,71.575 77.500 C 71.267 77.500,72.852 78.806,73.570 79.143 C 74.909 79.772,76.815 79.621,78.042 78.788 C 78.294 78.617,78.500 78.525,78.500 78.584 C 78.500 78.643,78.612 78.578,78.750 78.440 C 78.887 78.303,79.000 78.142,79.000 78.083 C 79.000 78.024,79.107 77.869,79.238 77.738 C 79.883 77.093,79.890 76.709,79.904 42.583 C 79.915 12.914,79.818 0.713,79.566 0.306 C 79.391 0.023,78.727 0.186,77.917 0.710 M76.969 40.167 C 76.970 58.266,76.905 72.686,76.821 73.250 C 76.739 73.800,76.629 74.676,76.577 75.196 C 76.526 75.717,76.415 76.384,76.330 76.678 C 76.245 76.973,76.207 77.263,76.244 77.323 C 76.281 77.383,76.253 77.527,76.181 77.643 C 76.096 77.781,75.841 77.452,75.433 76.676 C 75.093 76.028,74.868 75.412,74.933 75.307 C 75.000 75.198,74.979 75.160,74.883 75.220 C 74.098 75.704,73.838 71.894,73.850 60.083 L 73.859 51.083 72.492 49.618 C 70.173 47.133,69.238 45.796,68.880 44.451 C 68.425 42.742,68.596 23.048,69.098 19.333 C 69.154 18.921,69.197 18.566,69.193 18.545 C 69.029 17.495,72.214 10.470,72.714 10.779 C 72.814 10.841,72.834 10.803,72.763 10.687 C 72.649 10.503,74.977 7.246,76.232 5.833 L 76.750 5.250 76.859 6.667 C 76.919 7.446,76.969 22.521,76.969 40.167 M36.500 10.747 C 35.629 10.870,34.504 11.058,34.000 11.163 C 33.496 11.269,32.903 11.392,32.683 11.436 C 32.462 11.480,32.153 11.585,31.996 11.669 C 31.839 11.753,31.665 11.776,31.609 11.720 C 31.554 11.665,31.401 11.708,31.271 11.816 C 31.141 11.924,30.895 12.040,30.725 12.073 C 28.472 12.511,26.574 13.793,26.020 15.250 C 25.811 15.800,25.563 16.392,25.470 16.566 C 25.249 16.977,25.773 16.909,27.917 16.247 C 28.467 16.077,28.992 15.917,29.083 15.892 C 30.241 15.575,30.672 15.456,31.167 15.314 C 31.488 15.222,31.900 15.121,32.083 15.089 C 32.267 15.057,32.633 14.947,32.898 14.844 C 33.163 14.742,33.414 14.692,33.457 14.735 C 33.499 14.777,33.733 14.736,33.975 14.642 C 35.902 13.901,42.619 13.635,44.917 14.209 C 45.283 14.301,45.696 14.390,45.833 14.407 C 46.542 14.494,47.467 14.737,47.873 14.942 C 48.124 15.069,48.387 15.173,48.457 15.172 C 49.515 15.160,55.982 18.625,55.713 19.060 C 55.655 19.154,55.725 19.180,55.879 19.121 C 56.025 19.065,56.169 19.071,56.198 19.134 C 56.226 19.198,56.639 19.509,57.113 19.826 C 57.588 20.143,57.940 20.462,57.895 20.535 C 57.850 20.607,57.931 20.667,58.073 20.667 C 58.216 20.667,58.333 20.754,58.333 20.861 C 58.333 20.968,58.380 21.009,58.436 20.953 C 58.535 20.854,60.846 22.329,61.304 22.782 C 61.425 22.902,61.606 23.000,61.707 23.000 C 61.808 23.000,62.040 23.131,62.224 23.292 C 62.407 23.452,62.503 23.491,62.437 23.377 C 62.300 23.143,61.967 21.400,61.974 20.958 C 61.977 20.798,61.916 20.667,61.839 20.667 C 61.762 20.667,61.627 20.460,61.538 20.208 C 61.328 19.612,59.942 17.777,59.459 17.455 C 59.252 17.318,58.921 17.065,58.722 16.894 C 57.855 16.148,57.667 16.011,57.664 16.127 C 57.663 16.194,57.606 16.174,57.539 16.082 C 57.385 15.871,54.874 14.333,54.683 14.333 C 54.605 14.333,54.448 14.222,54.335 14.085 C 54.222 13.949,54.062 13.878,53.981 13.928 C 53.900 13.979,53.833 13.940,53.833 13.843 C 53.833 13.746,53.761 13.667,53.672 13.667 C 53.583 13.667,53.114 13.487,52.630 13.267 C 51.173 12.605,50.500 12.345,50.500 12.444 C 50.500 12.496,50.315 12.417,50.089 12.269 C 49.863 12.121,49.530 12.000,49.349 12.000 C 49.168 12.000,48.971 11.921,48.911 11.825 C 48.852 11.728,48.716 11.680,48.610 11.719 C 48.504 11.757,48.297 11.727,48.151 11.652 C 47.886 11.517,47.755 11.485,46.000 11.142 C 43.094 10.572,38.947 10.400,36.500 10.747 M36.667 18.372 C 36.162 18.450,35.506 18.591,35.207 18.685 C 34.908 18.779,34.465 18.892,34.221 18.936 C 33.977 18.980,33.359 19.168,32.847 19.354 C 32.335 19.539,31.842 19.711,31.750 19.737 C 31.370 19.842,30.901 20.034,30.667 20.179 C 30.529 20.264,30.229 20.414,30.000 20.512 C 29.771 20.610,29.445 20.816,29.274 20.970 C 29.104 21.124,28.935 21.230,28.897 21.205 C 28.782 21.128,27.936 21.620,27.542 21.992 C 27.335 22.187,27.167 22.307,27.167 22.258 C 27.167 22.154,26.591 22.614,26.146 23.073 C 25.974 23.251,25.833 23.347,25.833 23.286 C 25.833 23.226,25.158 23.847,24.333 24.667 C 23.508 25.486,22.833 26.217,22.833 26.291 C 22.833 26.365,22.702 26.544,22.542 26.689 C 22.139 27.053,21.650 27.667,21.764 27.667 C 21.815 27.667,21.758 27.777,21.637 27.911 C 21.124 28.479,21.025 28.637,21.121 28.732 C 21.177 28.788,21.135 28.833,21.028 28.833 C 20.921 28.833,20.833 28.940,20.833 29.069 C 20.833 29.199,20.775 29.331,20.703 29.361 C 20.472 29.459,18.746 33.167,18.931 33.167 C 18.975 33.167,18.929 33.322,18.828 33.511 C 18.726 33.700,18.605 34.019,18.557 34.219 C 18.228 35.615,18.135 36.117,17.903 37.750 C 17.557 40.191,17.794 42.906,18.619 45.955 C 18.749 46.435,18.838 46.847,18.816 46.872 C 18.795 46.896,18.880 47.104,19.007 47.333 C 19.133 47.563,19.218 47.844,19.194 47.958 C 19.171 48.073,19.230 48.167,19.326 48.167 C 19.422 48.167,19.500 48.272,19.500 48.400 C 19.500 48.610,19.831 49.286,20.768 50.990 C 21.121 51.632,21.197 51.744,21.677 52.326 C 21.863 52.551,22.168 52.982,22.354 53.284 C 22.541 53.586,22.775 53.833,22.875 53.833 C 22.974 53.833,23.015 53.874,22.966 53.923 C 22.892 53.997,25.472 56.667,25.619 56.667 C 25.645 56.667,25.809 56.798,25.983 56.958 C 26.658 57.583,27.167 57.970,27.169 57.862 C 27.171 57.801,27.227 57.831,27.294 57.929 C 27.362 58.028,27.735 58.285,28.125 58.501 C 28.515 58.718,28.833 58.947,28.833 59.011 C 28.833 59.124,29.303 59.296,29.524 59.265 C 29.583 59.257,29.790 59.393,29.983 59.567 C 30.175 59.742,30.333 59.824,30.333 59.750 C 30.333 59.676,30.465 59.725,30.625 59.860 C 31.004 60.179,34.333 61.422,34.333 61.245 C 34.333 61.207,34.540 61.257,34.792 61.358 C 35.044 61.458,35.406 61.561,35.596 61.586 C 35.786 61.610,36.348 61.711,36.846 61.809 C 37.962 62.029,42.531 62.039,43.354 61.823 C 43.687 61.736,44.174 61.637,44.438 61.603 C 45.397 61.478,47.356 60.891,48.442 60.403 C 48.731 60.273,49.078 60.167,49.213 60.167 C 49.348 60.167,49.549 60.059,49.658 59.927 C 49.767 59.796,50.070 59.641,50.331 59.584 C 50.592 59.527,50.849 59.367,50.902 59.229 C 50.954 59.092,51.073 59.026,51.165 59.083 C 51.258 59.140,51.333 59.107,51.333 59.010 C 51.333 58.913,51.410 58.833,51.504 58.833 C 51.767 58.833,53.285 57.814,53.923 57.208 C 54.044 57.094,54.190 57.000,54.249 57.000 C 54.467 57.000,57.635 53.719,58.140 52.971 C 58.429 52.542,58.775 52.082,58.908 51.949 C 59.042 51.816,59.106 51.662,59.052 51.607 C 58.997 51.553,59.075 51.461,59.225 51.403 C 59.375 51.346,59.460 51.237,59.414 51.163 C 59.368 51.088,59.462 50.895,59.623 50.734 C 59.785 50.572,59.894 50.435,59.867 50.429 C 59.839 50.422,60.054 49.892,60.345 49.250 C 60.636 48.608,60.869 48.046,60.862 48.000 C 60.855 47.954,60.960 47.748,61.095 47.542 C 61.230 47.335,61.300 47.167,61.250 47.167 C 61.199 47.167,61.274 46.942,61.417 46.667 C 61.559 46.392,61.638 46.167,61.592 46.167 C 61.546 46.167,61.588 45.960,61.687 45.708 C 61.908 45.138,61.943 44.925,62.247 42.250 C 62.500 40.017,62.505 40.118,61.931 35.417 C 61.909 35.233,61.843 34.971,61.784 34.833 C 61.726 34.696,61.482 33.983,61.243 33.250 C 60.526 31.050,58.906 28.031,57.792 26.818 C 57.631 26.643,57.548 26.500,57.606 26.500 C 57.733 26.500,54.869 23.668,53.872 22.809 C 53.484 22.474,53.166 22.249,53.164 22.309 C 53.163 22.368,53.106 22.341,53.039 22.248 C 52.361 21.317,46.669 18.852,44.571 18.580 C 44.381 18.556,43.818 18.456,43.321 18.358 C 42.279 18.152,38.020 18.161,36.667 18.372 M42.195 21.406 C 44.141 21.648,45.906 22.065,46.292 22.374 C 46.406 22.466,46.500 22.498,46.500 22.446 C 46.500 22.166,49.321 23.593,51.000 24.722 C 52.545 25.762,55.500 28.672,55.500 29.155 C 55.500 29.238,55.556 29.331,55.625 29.361 C 55.867 29.469,56.790 30.929,57.293 32.000 C 57.981 33.465,58.333 34.333,58.237 34.333 C 58.194 34.333,58.274 34.558,58.417 34.833 C 58.559 35.108,58.638 35.333,58.592 35.333 C 58.546 35.333,58.583 35.531,58.675 35.772 C 58.767 36.014,58.880 36.512,58.926 36.880 C 58.972 37.247,59.052 37.617,59.104 37.701 C 59.286 37.994,59.199 42.146,59.000 42.751 C 58.890 43.084,58.842 43.398,58.893 43.449 C 58.945 43.500,58.876 43.807,58.741 44.130 C 58.606 44.453,58.531 44.753,58.574 44.797 C 58.618 44.840,58.542 45.091,58.406 45.354 C 58.270 45.618,58.200 45.833,58.252 45.833 C 58.303 45.833,58.252 46.002,58.139 46.208 C 58.025 46.415,57.918 46.668,57.901 46.771 C 57.800 47.361,55.993 50.584,55.387 51.252 C 55.220 51.436,54.796 51.943,54.446 52.379 C 54.093 52.816,53.727 53.121,53.628 53.060 C 53.529 52.998,53.496 53.025,53.554 53.119 C 53.679 53.322,52.178 54.651,50.687 55.657 C 44.312 59.960,35.078 59.796,29.000 55.271 C 27.893 54.447,25.000 51.613,25.000 51.353 C 25.000 51.250,24.913 51.167,24.806 51.167 C 24.699 51.167,24.658 51.120,24.715 51.063 C 24.772 51.005,24.677 50.837,24.504 50.688 C 23.976 50.234,22.349 47.135,22.306 46.500 C 22.303 46.454,22.228 46.281,22.139 46.114 C 22.050 45.948,21.947 45.685,21.910 45.531 C 21.873 45.376,21.764 44.950,21.668 44.583 C 20.852 41.474,20.847 38.622,21.652 35.667 C 21.739 35.346,21.860 34.896,21.920 34.667 C 21.980 34.438,22.072 34.137,22.123 34.000 C 22.175 33.862,22.235 33.675,22.257 33.583 C 22.434 32.850,24.071 29.897,24.531 29.483 C 24.694 29.336,24.788 29.177,24.740 29.129 C 24.693 29.082,25.032 28.644,25.493 28.157 C 25.955 27.670,26.333 27.206,26.333 27.126 C 26.333 27.046,26.390 27.014,26.458 27.056 C 26.527 27.098,26.680 27.027,26.798 26.899 C 26.916 26.771,26.976 26.667,26.930 26.667 C 26.735 26.667,28.500 25.163,29.417 24.549 C 31.823 22.936,34.991 21.766,37.917 21.411 C 40.176 21.136,40.019 21.136,42.195 21.406 M16.164 22.059 C 17.309 22.131,18.274 22.218,18.308 22.253 C 18.389 22.333,15.190 25.480,13.906 26.583 C 12.025 28.200,12.192 27.657,12.009 32.750 C 12.000 33.025,11.970 42.212,11.943 53.167 C 11.889 75.057,11.860 75.937,11.186 76.069 C 9.840 76.332,9.123 76.372,9.243 76.178 C 9.312 76.067,9.281 74.426,9.175 72.530 C 9.053 70.349,8.970 61.569,8.949 48.612 L 8.917 28.140 8.418 27.778 C 8.144 27.579,7.788 27.285,7.626 27.125 C 7.465 26.965,7.288 26.833,7.232 26.833 C 7.059 26.833,2.833 22.537,2.833 22.361 C 2.833 22.270,3.415 22.146,4.125 22.085 C 4.835 22.025,5.492 21.948,5.583 21.915 C 5.869 21.811,13.974 21.921,16.164 22.059 M62.583 55.603 C 62.217 55.922,61.748 56.347,61.542 56.547 C 61.335 56.746,61.167 56.855,61.167 56.788 C 61.167 56.721,60.923 56.913,60.625 57.215 C 60.327 57.517,59.708 58.059,59.250 58.418 C 58.792 58.778,58.379 59.119,58.333 59.177 C 57.725 59.943,52.350 63.500,50.894 64.100 C 50.540 64.246,50.025 64.464,49.750 64.586 C 49.215 64.822,48.663 64.997,48.457 64.995 C 48.387 64.994,48.099 65.113,47.816 65.259 C 47.534 65.405,47.262 65.484,47.213 65.435 C 47.163 65.385,46.979 65.422,46.804 65.516 C 46.477 65.691,45.356 65.903,43.583 66.125 C 41.566 66.378,37.310 66.267,35.750 65.922 C 34.164 65.571,32.376 65.100,32.114 64.966 C 31.948 64.880,31.685 64.785,31.531 64.753 C 31.245 64.696,29.787 64.228,29.333 64.049 C 29.196 63.994,29.008 63.932,28.917 63.910 C 28.825 63.888,28.225 63.667,27.583 63.419 C 23.122 61.691,23.448 61.701,23.245 63.282 C 23.219 63.483,23.146 63.733,23.081 63.837 C 22.954 64.042,23.375 64.499,24.000 64.833 C 24.218 64.950,24.475 65.114,24.573 65.198 C 24.931 65.507,27.411 66.776,28.917 67.421 C 30.203 67.972,30.667 68.143,30.667 68.069 C 30.667 68.025,30.835 68.083,31.042 68.198 C 31.248 68.313,31.567 68.420,31.750 68.435 C 31.933 68.450,32.496 68.572,33.000 68.705 C 37.436 69.879,42.388 69.884,47.083 68.720 C 47.633 68.584,48.243 68.449,48.438 68.420 C 48.632 68.391,48.932 68.292,49.104 68.200 C 49.276 68.108,49.454 68.036,49.500 68.041 C 49.616 68.052,50.349 67.839,50.750 67.678 C 53.012 66.770,55.587 65.455,57.058 64.459 C 57.590 64.098,59.246 62.806,59.333 62.683 C 59.379 62.619,59.769 62.317,60.199 62.012 C 60.629 61.707,61.020 61.354,61.068 61.229 C 61.117 61.103,61.271 61.000,61.411 61.000 C 61.552 61.000,61.667 60.928,61.667 60.841 C 61.667 60.753,61.843 60.506,62.058 60.291 C 63.143 59.205,63.830 57.348,63.617 56.072 C 63.432 54.965,63.355 54.930,62.583 55.603 " stroke="none" fill="#2c6c5c" fill-rule="evenodd"></path><path id="path2" d="M7.544 0.120 C 7.797 0.158,8.172 0.157,8.377 0.117 C 8.582 0.078,8.375 0.046,7.917 0.048 C 7.458 0.049,7.291 0.081,7.544 0.120 M19.769 0.137 C 19.722 0.212,19.905 0.241,20.175 0.201 C 20.446 0.161,20.667 0.100,20.667 0.064 C 20.667 -0.063,19.851 0.003,19.769 0.137 M78.609 0.125 C 78.567 0.194,78.787 0.250,79.099 0.250 C 79.411 0.250,79.667 0.194,79.667 0.125 C 79.667 0.056,79.446 0.000,79.177 0.000 C 78.907 0.000,78.652 0.056,78.609 0.125 M79.725 2.333 C 79.725 3.112,79.754 3.431,79.789 3.042 C 79.824 2.652,79.824 2.015,79.789 1.625 C 79.754 1.235,79.725 1.554,79.725 2.333 M74.240 3.542 L 73.750 4.083 74.292 3.594 C 74.590 3.325,74.833 3.081,74.833 3.052 C 74.833 2.923,74.696 3.037,74.240 3.542 M72.740 5.042 L 72.250 5.583 72.792 5.094 C 73.090 4.825,73.333 4.581,73.333 4.552 C 73.333 4.423,73.196 4.537,72.740 5.042 M15.230 6.917 C 15.231 8.017,15.258 8.445,15.290 7.868 C 15.323 7.292,15.323 6.392,15.290 5.868 C 15.257 5.345,15.230 5.817,15.230 6.917 M76.500 5.506 C 76.362 5.674,76.000 6.116,75.694 6.489 C 75.389 6.862,75.201 7.161,75.278 7.154 C 75.436 7.140,76.889 5.331,76.805 5.253 C 76.775 5.225,76.637 5.339,76.500 5.506 M201.083 7.238 C 196.913 7.953,191.353 11.388,189.617 14.321 C 189.477 14.557,189.199 14.938,188.998 15.167 C 188.565 15.660,187.562 17.576,187.120 18.750 C 185.424 23.261,185.592 28.054,187.593 32.300 C 187.909 32.970,188.167 33.589,188.167 33.675 C 188.167 33.762,188.223 33.833,188.293 33.833 C 188.362 33.833,188.511 34.040,188.624 34.292 C 188.887 34.881,190.671 37.086,191.468 37.807 C 192.767 38.982,193.022 39.178,194.366 40.041 C 198.715 42.831,204.143 43.771,208.667 42.518 C 210.497 42.011,210.995 41.841,211.750 41.468 C 213.157 40.773,214.565 39.931,214.970 39.544 C 215.091 39.428,215.251 39.333,215.326 39.333 C 215.507 39.333,218.332 36.528,218.740 35.942 C 218.917 35.687,219.198 35.322,219.365 35.131 C 219.531 34.939,219.667 34.724,219.667 34.653 C 219.667 34.582,219.765 34.425,219.885 34.304 C 220.120 34.067,221.505 31.240,221.789 30.417 C 224.811 21.661,220.154 12.324,210.667 8.117 C 208.524 7.167,203.945 6.747,201.083 7.238 M287.252 7.191 C 283.045 7.730,277.627 11.066,275.286 14.558 C 275.031 14.939,274.722 15.371,274.598 15.520 C 274.222 15.973,272.833 18.847,272.833 19.174 C 272.833 19.342,272.768 19.520,272.689 19.569 C 272.610 19.618,272.500 19.904,272.445 20.204 C 272.390 20.504,272.230 21.275,272.089 21.917 C 270.962 27.060,272.953 33.449,276.920 37.413 C 278.183 38.675,280.291 40.333,280.633 40.333 C 280.728 40.333,280.831 40.393,280.861 40.466 C 281.151 41.161,285.217 42.537,288.083 42.912 C 291.285 43.330,294.855 42.743,298.000 41.280 C 298.695 40.957,300.977 39.563,301.167 39.345 C 301.212 39.293,301.744 38.823,302.349 38.301 C 303.511 37.296,305.070 35.474,305.599 34.500 C 305.774 34.179,305.962 33.879,306.017 33.833 C 306.240 33.647,307.496 30.850,307.666 30.159 C 308.236 27.841,308.333 27.097,308.333 25.044 C 308.333 23.002,308.261 22.399,307.795 20.583 C 306.843 16.865,304.161 12.792,301.430 10.917 C 301.163 10.733,300.864 10.506,300.764 10.411 C 298.324 8.086,292.010 6.582,287.252 7.191 M334.583 7.189 C 332.063 7.464,327.811 9.272,326.229 10.742 C 326.125 10.838,325.638 11.252,325.145 11.661 C 324.332 12.337,323.455 13.271,322.424 14.559 C 321.289 15.976,320.009 18.686,319.343 21.083 C 318.882 22.743,318.881 26.717,319.342 28.750 C 319.740 30.508,321.152 33.995,321.523 34.139 C 321.602 34.169,321.667 34.275,321.667 34.374 C 321.667 34.705,323.044 36.405,324.403 37.752 C 328.207 41.523,333.512 43.451,338.775 42.978 C 340.399 42.831,340.633 42.786,342.583 42.246 C 348.719 40.546,353.731 35.087,355.356 28.333 C 355.650 27.112,355.647 22.853,355.352 21.750 C 353.496 14.822,349.321 10.164,342.917 7.877 C 340.767 7.109,337.662 6.853,334.583 7.189 M74.500 8.000 C 74.210 8.367,74.035 8.665,74.111 8.663 C 74.255 8.659,75.250 7.333,75.108 7.333 C 75.064 7.333,74.790 7.633,74.500 8.000 M237.667 7.513 C 236.429 7.600,235.332 7.702,235.228 7.740 C 234.924 7.849,234.797 12.526,234.764 24.879 C 234.729 38.178,234.848 40.775,235.541 41.768 C 236.081 42.542,237.318 43.910,237.393 43.816 C 237.499 43.686,237.825 40.888,237.916 39.333 C 237.967 38.462,238.051 37.254,238.102 36.648 L 238.196 35.546 249.021 35.631 L 259.846 35.715 259.798 34.066 L 259.750 32.417 248.971 32.454 L 238.192 32.491 238.093 31.370 C 238.038 30.754,237.953 29.819,237.905 29.292 L 237.817 28.333 248.283 28.313 C 254.040 28.301,259.275 28.245,259.917 28.188 L 261.083 28.083 259.907 26.912 L 258.730 25.740 257.005 25.525 C 255.781 25.372,252.770 25.313,246.640 25.323 L 238.000 25.335 238.000 18.084 L 238.000 10.833 248.917 10.833 L 259.833 10.833 259.833 9.167 L 259.833 7.500 256.958 7.500 C 255.377 7.500,250.896 7.467,247.000 7.427 C 243.104 7.388,238.904 7.426,237.667 7.513 M370.210 7.497 C 368.814 7.558,367.638 7.640,367.597 7.680 C 367.341 7.936,367.159 17.317,367.182 29.099 L 367.208 42.614 371.214 42.724 C 383.431 43.058,387.287 42.536,391.330 40.002 C 392.103 39.517,392.824 39.033,392.931 38.927 C 393.037 38.820,393.440 38.474,393.826 38.158 C 394.636 37.495,396.547 35.135,397.261 33.917 C 398.294 32.153,398.732 31.032,399.507 28.167 C 399.768 27.203,399.759 23.432,399.494 22.293 C 398.963 20.015,397.548 16.450,396.997 16.000 C 396.941 15.954,396.623 15.504,396.292 14.999 C 394.684 12.554,391.042 9.783,388.076 8.748 C 384.757 7.591,378.383 7.145,370.210 7.497 M149.000 24.974 L 149.000 42.447 152.375 42.556 C 159.842 42.798,170.307 42.631,174.403 42.204 L 175.555 42.083 174.957 41.469 C 173.011 39.468,173.011 39.468,161.635 39.486 L 152.021 39.500 151.969 37.652 C 151.940 36.636,151.948 35.773,151.986 35.735 C 152.024 35.698,157.021 35.667,163.090 35.667 L 174.124 35.667 174.242 34.153 C 174.307 33.320,174.311 32.588,174.250 32.528 C 174.189 32.467,169.158 32.391,163.070 32.359 L 152.000 32.302 152.000 30.312 L 152.000 28.323 160.542 28.349 C 169.857 28.378,171.208 28.273,174.743 27.245 C 175.921 26.902,175.986 26.767,175.122 26.456 C 171.912 25.304,167.748 25.013,157.792 25.248 L 152.000 25.385 152.000 18.109 L 152.000 10.833 161.042 10.858 C 167.691 10.875,170.502 10.824,171.667 10.664 C 173.332 10.434,173.334 10.433,174.167 9.250 C 174.396 8.924,174.715 8.499,174.875 8.304 C 175.035 8.109,175.167 7.897,175.167 7.834 C 175.167 7.626,169.073 7.501,158.958 7.500 L 149.000 7.500 149.000 24.974 M76.904 11.083 C 76.904 13.008,76.928 13.773,76.958 12.783 C 76.987 11.792,76.987 10.217,76.958 9.283 C 76.928 8.348,76.904 9.158,76.904 11.083 M134.143 8.783 C 133.062 9.730,128.869 13.927,127.849 15.084 C 126.570 16.534,123.638 19.692,122.084 21.294 L 120.584 22.839 120.111 22.295 C 119.851 21.995,119.401 21.486,119.111 21.163 C 118.821 20.841,118.060 19.978,117.420 19.247 C 116.102 17.739,113.500 14.859,112.750 14.077 C 112.475 13.790,111.427 12.672,110.421 11.593 C 107.681 8.654,106.309 8.013,104.036 8.609 L 103.489 8.752 104.036 9.342 C 104.337 9.666,105.033 10.452,105.583 11.089 C 106.133 11.725,106.808 12.478,107.083 12.761 C 107.358 13.044,108.270 14.020,109.110 14.929 C 109.949 15.839,110.962 16.923,111.360 17.338 C 111.758 17.754,112.529 18.579,113.075 19.172 C 113.620 19.765,114.671 20.887,115.410 21.667 C 117.423 23.789,118.500 25.003,118.500 25.149 C 118.500 25.296,118.541 25.252,113.805 30.172 C 111.911 32.140,110.199 33.938,110.001 34.167 C 109.803 34.396,109.166 35.108,108.584 35.750 C 107.187 37.293,106.159 38.493,105.750 39.063 C 105.436 39.500,105.281 39.697,104.664 40.444 C 104.241 40.957,103.667 41.796,103.667 41.901 C 103.667 42.155,104.844 41.949,106.807 41.351 C 107.479 41.146,108.764 40.086,110.667 38.167 C 112.247 36.573,112.840 35.934,117.333 30.995 C 118.204 30.037,119.298 28.848,119.765 28.353 L 120.614 27.451 122.265 29.118 C 123.173 30.035,124.929 31.864,126.167 33.182 C 130.812 38.129,136.232 43.333,136.740 43.333 C 136.806 43.333,136.816 43.127,136.762 42.875 C 136.708 42.623,136.597 41.878,136.515 41.219 C 136.345 39.843,135.886 38.819,135.022 37.887 C 134.689 37.528,133.769 36.525,132.978 35.659 C 132.187 34.792,130.547 33.071,129.334 31.833 C 124.824 27.233,122.968 25.187,123.103 24.965 C 123.425 24.439,125.861 21.856,129.420 18.270 C 131.567 16.107,133.152 14.408,134.042 13.314 C 134.295 13.004,134.660 12.563,134.854 12.333 C 135.331 11.769,137.541 8.480,137.472 8.437 C 137.297 8.328,135.766 8.000,135.432 8.000 C 135.198 8.000,134.671 8.320,134.143 8.783 M79.900 11.167 C 79.900 12.588,79.926 13.169,79.957 12.458 C 79.988 11.748,79.988 10.585,79.957 9.875 C 79.926 9.165,79.900 9.746,79.900 11.167 M73.500 9.333 C 73.304 9.608,73.181 9.833,73.227 9.833 C 73.273 9.833,73.471 9.608,73.667 9.333 C 73.862 9.058,73.985 8.833,73.939 8.833 C 73.894 8.833,73.696 9.058,73.500 9.333 M72.705 10.458 C 72.217 11.164,72.098 11.464,72.490 11.000 C 72.897 10.519,73.214 10.000,73.101 10.000 C 73.058 10.000,72.880 10.206,72.705 10.458 M206.696 10.346 C 213.839 11.789,218.383 16.475,219.250 23.291 C 219.693 26.771,218.463 31.610,216.637 33.571 C 216.470 33.750,216.333 33.960,216.333 34.038 C 216.333 34.116,215.752 34.746,215.042 35.438 C 203.642 46.542,184.872 35.052,190.076 20.156 C 190.514 18.902,191.503 16.973,191.924 16.552 C 192.058 16.419,192.167 16.241,192.167 16.158 C 192.167 15.950,194.448 13.671,195.165 13.163 C 198.564 10.752,203.155 9.631,206.696 10.346 M292.529 10.347 C 294.960 10.840,298.247 12.129,298.833 12.820 C 298.879 12.874,299.217 13.137,299.583 13.405 C 303.518 16.275,306.028 22.328,305.166 26.867 C 304.671 29.471,304.695 29.392,303.710 31.502 C 302.998 33.026,301.162 35.417,300.059 36.256 C 299.372 36.778,298.912 37.147,298.606 37.419 C 298.105 37.866,295.091 39.168,293.802 39.495 C 287.505 41.092,279.747 37.820,277.000 32.409 C 276.863 32.138,276.708 31.879,276.656 31.833 C 275.957 31.217,275.087 27.462,275.093 25.083 C 275.100 22.086,276.411 17.810,277.741 16.444 C 277.845 16.337,278.059 16.064,278.216 15.837 C 280.881 11.981,287.696 9.367,292.529 10.347 M339.833 10.408 C 349.332 12.242,354.565 21.007,351.531 30.000 C 351.120 31.217,350.971 31.532,350.150 32.917 C 348.980 34.890,346.228 37.356,344.167 38.280 C 342.596 38.984,342.092 39.164,340.804 39.479 C 335.784 40.708,330.119 39.138,326.489 35.510 C 325.037 34.060,324.013 32.470,322.991 30.083 C 321.894 27.523,321.992 22.771,323.205 19.667 C 325.785 13.064,332.944 9.078,339.833 10.408 M21.058 11.833 C 21.058 12.612,21.087 12.931,21.122 12.542 C 21.157 12.152,21.157 11.515,21.122 11.125 C 21.087 10.735,21.058 11.054,21.058 11.833 M383.194 11.084 C 393.883 12.465,399.293 22.143,394.690 31.646 C 393.300 34.515,389.245 38.167,387.450 38.167 C 387.331 38.167,387.162 38.231,387.075 38.309 C 386.252 39.047,381.024 39.516,375.104 39.381 L 370.667 39.281 370.667 25.168 C 370.667 17.406,370.707 11.016,370.756 10.967 C 370.992 10.731,381.204 10.827,383.194 11.084 M71.627 12.208 C 71.247 12.790,70.637 14.026,70.699 14.088 C 70.730 14.119,71.035 13.624,71.376 12.989 C 71.986 11.853,72.109 11.470,71.627 12.208 M38.711 13.953 C 38.964 13.991,39.339 13.990,39.544 13.951 C 39.749 13.911,39.542 13.880,39.083 13.881 C 38.625 13.882,38.457 13.915,38.711 13.953 M41.960 13.951 C 42.168 13.991,42.468 13.990,42.627 13.948 C 42.786 13.906,42.617 13.874,42.250 13.875 C 41.883 13.877,41.753 13.911,41.960 13.951 M44.917 14.333 C 45.100 14.412,45.362 14.477,45.500 14.477 C 45.658 14.477,45.627 14.424,45.417 14.333 C 45.233 14.255,44.971 14.190,44.833 14.190 C 44.676 14.190,44.707 14.243,44.917 14.333 M21.056 15.500 C 21.056 16.188,21.085 16.469,21.121 16.125 C 21.157 15.781,21.157 15.219,21.121 14.875 C 21.085 14.531,21.056 14.813,21.056 15.500 M34.417 14.504 C 34.194 14.603,34.333 14.619,34.833 14.553 C 35.246 14.498,35.615 14.427,35.653 14.393 C 35.798 14.268,34.735 14.363,34.417 14.504 M70.200 15.202 C 69.827 16.159,69.538 17.197,69.816 16.583 C 70.194 15.749,70.664 14.442,70.607 14.385 C 70.572 14.350,70.389 14.718,70.200 15.202 M32.750 14.923 C 32.333 15.123,32.319 15.146,32.667 15.062 C 33.139 14.946,33.670 14.676,33.417 14.679 C 33.325 14.681,33.025 14.790,32.750 14.923 M50.833 16.063 C 50.833 16.173,53.047 17.342,53.119 17.270 C 53.150 17.239,52.649 16.936,52.005 16.597 C 51.360 16.259,50.833 16.018,50.833 16.063 M80.078 26.083 C 80.078 31.583,80.099 33.809,80.125 31.030 C 80.151 28.250,80.151 23.750,80.125 21.030 C 80.099 18.309,80.078 20.583,80.078 26.083 M26.000 16.773 L 25.250 17.002 25.902 16.924 C 26.261 16.881,26.632 16.768,26.727 16.673 C 26.822 16.578,26.866 16.510,26.825 16.522 C 26.784 16.534,26.412 16.647,26.000 16.773 M60.840 18.917 C 60.840 19.008,60.994 19.271,61.182 19.500 C 61.408 19.777,61.465 19.805,61.350 19.583 C 61.069 19.040,60.838 18.738,60.840 18.917 M56.333 19.385 C 56.333 19.424,56.652 19.666,57.042 19.923 C 57.431 20.180,57.662 20.284,57.554 20.153 C 57.348 19.903,56.333 19.265,56.333 19.385 M39.792 21.284 C 39.998 21.324,40.335 21.324,40.542 21.284 C 40.748 21.245,40.579 21.212,40.167 21.212 C 39.754 21.212,39.585 21.245,39.792 21.284 M38.292 21.451 C 38.498 21.491,38.835 21.491,39.042 21.451 C 39.248 21.411,39.079 21.379,38.667 21.379 C 38.254 21.379,38.085 21.411,38.292 21.451 M41.460 21.451 C 41.668 21.491,41.968 21.490,42.127 21.448 C 42.286 21.406,42.117 21.374,41.750 21.375 C 41.383 21.377,41.253 21.411,41.460 21.451 M36.167 21.667 C 35.837 21.772,35.819 21.800,36.083 21.800 C 36.267 21.800,36.604 21.740,36.833 21.667 C 37.163 21.561,37.181 21.533,36.917 21.533 C 36.733 21.533,36.396 21.593,36.167 21.667 M43.417 21.659 C 43.737 21.804,44.629 21.898,44.486 21.772 C 44.448 21.738,44.117 21.665,43.750 21.609 C 43.285 21.539,43.184 21.554,43.417 21.659 M68.879 22.333 C 68.879 22.746,68.911 22.915,68.951 22.708 C 68.991 22.502,68.991 22.165,68.951 21.958 C 68.911 21.752,68.879 21.921,68.879 22.333 M7.708 21.958 C 8.877 21.987,10.790 21.987,11.958 21.958 C 13.127 21.929,12.171 21.906,9.833 21.906 C 7.496 21.906,6.540 21.929,7.708 21.958 M34.500 22.160 C 33.996 22.328,33.647 22.473,33.724 22.483 C 33.928 22.508,35.667 21.990,35.667 21.905 C 35.667 21.792,35.479 21.833,34.500 22.160 M44.833 21.992 C 44.971 22.085,45.227 22.163,45.403 22.164 C 45.829 22.168,45.696 22.072,45.083 21.935 C 44.718 21.853,44.651 21.869,44.833 21.992 M60.000 21.969 C 60.000 22.048,60.188 22.199,60.417 22.303 C 60.646 22.407,60.833 22.466,60.833 22.432 C 60.833 22.399,60.646 22.249,60.417 22.099 C 60.188 21.949,60.000 21.890,60.000 21.969 M4.292 22.118 C 4.498 22.157,4.835 22.157,5.042 22.118 C 5.248 22.078,5.079 22.045,4.667 22.045 C 4.254 22.045,4.085 22.078,4.292 22.118 M14.875 22.119 C 15.127 22.158,15.540 22.158,15.792 22.119 C 16.044 22.081,15.838 22.050,15.333 22.050 C 14.829 22.050,14.623 22.081,14.875 22.119 M31.871 23.158 C 30.231 23.951,28.268 25.260,27.583 26.016 L 27.083 26.568 27.685 26.076 C 28.785 25.174,28.920 25.071,29.683 24.546 C 30.544 23.954,32.780 22.833,33.101 22.833 C 33.218 22.833,33.360 22.758,33.417 22.667 C 33.595 22.378,33.272 22.481,31.871 23.158 M46.833 22.577 C 46.833 22.618,47.115 22.773,47.458 22.923 C 47.802 23.072,48.214 23.263,48.373 23.347 C 48.810 23.578,48.952 23.530,48.579 23.278 C 48.189 23.015,46.833 22.470,46.833 22.577 M61.925 23.235 C 62.269 23.487,62.502 23.438,62.497 23.115 C 62.496 22.982,62.447 22.991,62.352 23.143 C 62.252 23.300,62.174 23.313,62.094 23.184 C 62.032 23.083,61.895 23.000,61.792 23.000 C 61.688 23.000,61.748 23.106,61.925 23.235 M65.548 23.917 C 65.549 24.375,65.581 24.543,65.620 24.289 C 65.658 24.036,65.657 23.661,65.617 23.456 C 65.578 23.251,65.546 23.458,65.548 23.917 M68.721 24.417 C 68.722 25.058,68.752 25.300,68.788 24.955 C 68.824 24.609,68.824 24.084,68.787 23.788 C 68.750 23.492,68.721 23.775,68.721 24.417 M49.000 23.540 C 49.233 23.778,52.337 25.808,52.248 25.663 C 52.132 25.475,49.981 24.004,49.333 23.670 C 49.104 23.552,48.954 23.493,49.000 23.540 M55.826 24.542 C 56.235 24.977,56.591 25.333,56.618 25.333 C 56.743 25.333,56.611 25.184,55.875 24.493 L 55.083 23.750 55.826 24.542 M39.291 25.610 C 38.697 25.923,38.333 26.642,38.333 27.503 C 38.333 29.992,41.511 30.434,42.157 28.035 C 42.655 26.185,40.946 24.739,39.291 25.610 M53.000 26.417 C 53.311 26.738,53.603 27.000,53.649 27.000 C 53.695 27.000,53.478 26.738,53.167 26.417 C 52.856 26.096,52.564 25.833,52.518 25.833 C 52.472 25.833,52.689 26.096,53.000 26.417 M18.075 27.542 L 17.417 28.250 18.125 27.591 C 18.784 26.978,18.910 26.833,18.784 26.833 C 18.757 26.833,18.438 27.152,18.075 27.542 M34.000 27.071 C 29.465 28.270,25.334 34.400,25.333 39.932 L 25.333 41.281 25.958 41.466 C 26.302 41.569,26.900 41.702,27.288 41.763 L 27.992 41.875 28.579 40.603 C 28.902 39.904,29.167 39.252,29.167 39.155 C 29.167 39.058,29.354 38.569,29.583 38.068 C 29.813 37.567,30.000 37.091,30.000 37.011 C 30.000 36.728,31.538 33.954,31.974 33.451 C 32.676 32.642,34.797 30.539,36.423 29.040 C 38.105 27.489,38.105 27.460,36.417 27.050 C 35.415 26.807,34.986 26.810,34.000 27.071 M53.833 27.219 C 53.833 27.248,54.077 27.491,54.375 27.760 L 54.917 28.250 54.427 27.708 C 53.971 27.203,53.833 27.090,53.833 27.219 M16.410 29.208 L 15.583 30.083 16.458 29.256 C 17.271 28.488,17.410 28.333,17.285 28.333 C 17.259 28.333,16.865 28.727,16.410 29.208 M65.400 31.000 C 65.400 32.329,65.425 32.873,65.457 32.208 C 65.489 31.544,65.489 30.456,65.457 29.792 C 65.425 29.127,65.400 29.671,65.400 31.000 M68.565 31.583 C 68.565 32.775,68.592 33.241,68.624 32.618 C 68.656 31.996,68.656 31.021,68.623 30.451 C 68.591 29.882,68.564 30.392,68.565 31.583 M60.000 30.230 C 60.000 30.409,60.496 31.333,60.592 31.333 C 60.638 31.333,60.551 31.090,60.400 30.792 C 60.090 30.183,60.000 30.056,60.000 30.230 M56.340 30.417 C 56.340 30.508,56.494 30.771,56.682 31.000 C 56.908 31.277,56.965 31.305,56.850 31.083 C 56.569 30.540,56.338 30.238,56.340 30.417 M61.185 33.019 C 61.541 34.169,61.638 34.411,61.650 34.167 C 61.663 33.879,61.282 32.726,61.119 32.564 C 61.059 32.504,61.089 32.709,61.185 33.019 M65.400 36.000 C 65.400 37.329,65.425 37.873,65.457 37.208 C 65.489 36.544,65.489 35.456,65.457 34.792 C 65.425 34.127,65.400 34.671,65.400 36.000 M11.872 36.833 C 11.872 37.154,11.906 37.285,11.948 37.125 C 11.990 36.965,11.990 36.702,11.948 36.542 C 11.906 36.381,11.872 36.512,11.872 36.833 M62.379 38.833 C 62.379 39.246,62.411 39.415,62.451 39.208 C 62.491 39.002,62.491 38.665,62.451 38.458 C 62.411 38.252,62.379 38.421,62.379 38.833 M68.730 41.917 C 68.731 43.017,68.758 43.445,68.790 42.868 C 68.823 42.292,68.823 41.392,68.790 40.868 C 68.757 40.345,68.730 40.817,68.730 41.917 M62.381 41.417 C 62.382 41.875,62.415 42.043,62.453 41.789 C 62.491 41.536,62.490 41.161,62.451 40.956 C 62.411 40.751,62.380 40.958,62.381 41.417 M79.911 49.750 C 79.911 54.700,79.932 56.701,79.958 54.197 C 79.984 51.692,79.984 47.642,79.958 45.197 C 79.932 42.751,79.911 44.800,79.911 49.750 M65.542 42.250 C 65.544 42.617,65.578 42.747,65.618 42.540 C 65.658 42.332,65.656 42.032,65.615 41.873 C 65.573 41.714,65.540 41.883,65.542 42.250 M69.182 45.286 C 69.474 45.966,70.625 47.667,70.794 47.667 C 70.881 47.667,70.667 47.324,70.169 46.667 C 69.925 46.346,69.563 45.727,69.362 45.292 C 68.890 44.265,68.743 44.261,69.182 45.286 M8.879 45.667 C 8.879 46.079,8.911 46.248,8.951 46.042 C 8.991 45.835,8.991 45.498,8.951 45.292 C 8.911 45.085,8.879 45.254,8.879 45.667 M71.000 47.951 C 71.000 48.029,71.541 48.615,72.202 49.254 L 73.405 50.417 72.411 49.333 C 71.005 47.799,71.000 47.794,71.000 47.951 M24.167 50.333 C 24.362 50.608,24.560 50.833,24.606 50.833 C 24.652 50.833,24.529 50.608,24.333 50.333 C 24.138 50.058,23.940 49.833,23.894 49.833 C 23.848 49.833,23.971 50.058,24.167 50.333 M56.064 50.042 C 55.490 51.015,55.452 51.098,55.745 50.750 C 56.083 50.347,56.375 49.833,56.266 49.833 C 56.222 49.833,56.131 49.927,56.064 50.042 M73.911 60.750 C 73.911 65.883,73.932 68.007,73.958 65.470 C 73.984 62.933,73.984 58.733,73.958 56.137 C 73.932 53.541,73.911 55.617,73.911 60.750 M11.888 53.083 C 11.889 53.725,11.919 53.967,11.955 53.621 C 11.991 53.275,11.990 52.750,11.954 52.455 C 11.917 52.159,11.887 52.442,11.888 53.083 M54.015 52.631 C 53.885 52.788,53.548 53.179,53.266 53.500 C 52.983 53.821,53.146 53.711,53.626 53.256 C 54.107 52.801,54.500 52.408,54.500 52.381 C 54.500 52.239,54.219 52.383,54.015 52.631 M52.328 54.257 C 52.211 54.398,51.433 54.968,50.599 55.525 C 48.967 56.613,48.679 56.835,49.333 56.497 C 50.528 55.880,53.010 54.000,52.630 54.000 C 52.581 54.000,52.445 54.116,52.328 54.257 M28.006 54.447 C 28.012 54.573,28.730 55.128,29.872 55.891 C 30.131 56.064,30.333 56.119,30.333 56.016 C 30.333 55.916,30.244 55.833,30.135 55.833 C 30.026 55.833,29.501 55.491,28.969 55.072 C 28.436 54.654,28.003 54.372,28.006 54.447 M24.167 55.417 C 24.665 55.921,25.109 56.333,25.155 56.333 C 25.201 56.333,24.831 55.921,24.333 55.417 C 23.835 54.913,23.391 54.500,23.345 54.500 C 23.299 54.500,23.669 54.913,24.167 55.417 M62.417 55.588 C 62.142 55.814,61.997 55.999,62.096 55.999 C 62.195 56.000,62.451 55.813,62.667 55.583 C 63.160 55.058,63.062 55.060,62.417 55.588 M30.917 56.467 C 32.075 57.161,35.429 58.460,35.605 58.284 C 35.644 58.245,35.055 58.010,34.296 57.761 C 33.537 57.512,32.400 57.051,31.769 56.737 C 30.524 56.118,30.120 55.990,30.917 56.467 M70.872 57.000 C 70.872 57.321,70.906 57.452,70.948 57.292 C 70.990 57.131,70.990 56.869,70.948 56.708 C 70.906 56.548,70.872 56.679,70.872 57.000 M47.598 57.142 C 47.550 57.220,47.092 57.416,46.579 57.577 C 46.067 57.738,45.681 57.903,45.721 57.943 C 45.805 58.028,47.471 57.463,47.938 57.192 C 48.211 57.033,48.215 57.010,47.968 57.005 C 47.813 57.002,47.647 57.064,47.598 57.142 M63.366 58.021 C 63.270 58.399,63.253 58.643,63.328 58.563 C 63.484 58.397,63.733 57.333,63.617 57.333 C 63.575 57.333,63.462 57.643,63.366 58.021 M19.462 57.952 C 18.083 58.162,17.860 60.741,19.163 61.415 C 20.884 62.305,22.632 60.538,21.739 58.812 C 21.491 58.333,20.598 57.804,20.130 57.858 C 20.013 57.872,19.712 57.914,19.462 57.952 M44.667 58.174 C 44.484 58.298,44.552 58.313,44.917 58.232 C 45.529 58.095,45.663 57.999,45.236 58.003 C 45.060 58.004,44.804 58.081,44.667 58.174 M36.500 58.506 C 36.821 58.583,37.758 58.684,38.583 58.731 L 40.083 58.818 38.250 58.587 C 36.190 58.327,35.638 58.301,36.500 58.506 M43.083 58.500 C 42.659 58.683,43.097 58.683,43.667 58.500 C 44.002 58.393,44.018 58.366,43.750 58.362 C 43.567 58.359,43.267 58.421,43.083 58.500 M41.083 58.667 L 40.250 58.781 41.000 58.787 C 41.412 58.791,41.975 58.737,42.250 58.667 C 42.907 58.499,42.302 58.499,41.083 58.667 M57.821 59.445 L 57.417 59.890 57.870 59.570 C 58.119 59.394,58.325 59.194,58.328 59.125 C 58.337 58.920,58.245 58.977,57.821 59.445 M56.494 60.512 L 55.917 61.024 56.542 60.576 C 57.094 60.179,57.274 60.000,57.119 60.000 C 57.092 60.000,56.811 60.230,56.494 60.512 M79.890 61.917 C 79.891 62.650,79.920 62.929,79.956 62.537 C 79.991 62.145,79.990 61.545,79.954 61.204 C 79.919 60.863,79.890 61.183,79.890 61.917 M54.953 61.570 C 53.969 62.251,53.735 62.490,54.461 62.072 C 55.021 61.749,55.982 61.009,55.833 61.015 C 55.788 61.017,55.391 61.267,54.953 61.570 M25.583 62.655 C 25.950 62.831,26.363 62.978,26.500 62.981 C 26.786 62.988,25.933 62.594,25.323 62.438 C 25.099 62.381,25.217 62.478,25.583 62.655 M53.208 62.686 C 52.640 63.050,52.456 63.294,52.958 63.018 C 53.341 62.808,53.940 62.345,53.833 62.341 C 53.788 62.340,53.506 62.495,53.208 62.686 M70.883 64.000 C 70.883 64.504,70.915 64.710,70.953 64.458 C 70.991 64.206,70.991 63.794,70.953 63.542 C 70.915 63.290,70.883 63.496,70.883 64.000 M51.458 63.678 C 51.115 63.859,50.833 64.045,50.833 64.091 C 50.833 64.136,51.133 64.020,51.500 63.833 C 51.867 63.646,52.167 63.457,52.167 63.413 C 52.167 63.304,52.165 63.305,51.458 63.678 M28.167 63.619 C 28.304 63.670,28.567 63.781,28.750 63.865 C 29.078 64.016,29.078 64.014,28.760 63.759 C 28.582 63.617,28.319 63.506,28.176 63.513 C 27.952 63.525,27.951 63.539,28.167 63.619 M49.050 64.684 C 48.756 64.769,48.477 64.903,48.428 64.982 C 48.331 65.139,49.424 64.799,49.608 64.614 C 49.739 64.483,49.753 64.481,49.050 64.684 M32.924 65.233 C 33.769 65.498,34.754 65.699,34.638 65.583 C 34.525 65.470,32.713 64.996,32.450 65.011 C 32.340 65.017,32.553 65.117,32.924 65.233 M47.500 65.250 C 47.271 65.381,47.158 65.488,47.250 65.488 C 47.342 65.488,47.604 65.381,47.833 65.250 C 48.063 65.119,48.175 65.012,48.083 65.012 C 47.992 65.012,47.729 65.119,47.500 65.250 M80.072 69.000 C 80.072 71.246,80.096 72.165,80.125 71.042 C 80.153 69.919,80.153 68.081,80.125 66.958 C 80.096 65.835,80.072 66.754,80.072 69.000 M46.634 65.421 C 46.586 65.470,46.217 65.574,45.815 65.653 C 45.233 65.767,45.186 65.799,45.583 65.808 C 46.046 65.817,47.307 65.377,46.903 65.347 C 46.803 65.339,46.683 65.373,46.634 65.421 M38.208 66.282 C 38.369 66.323,38.631 66.323,38.792 66.282 C 38.952 66.240,38.821 66.205,38.500 66.205 C 38.179 66.205,38.048 66.240,38.208 66.282 M41.627 66.285 C 41.834 66.324,42.134 66.323,42.294 66.281 C 42.453 66.239,42.283 66.207,41.917 66.209 C 41.550 66.211,41.420 66.245,41.627 66.285 M11.875 66.917 C 11.877 67.283,11.911 67.414,11.951 67.206 C 11.991 66.999,11.990 66.699,11.948 66.540 C 11.906 66.380,11.874 66.550,11.875 66.917 M76.875 70.250 C 76.877 70.617,76.911 70.747,76.951 70.540 C 76.991 70.332,76.990 70.032,76.948 69.873 C 76.906 69.714,76.874 69.883,76.875 70.250 M5.872 72.167 C 5.872 72.487,5.906 72.619,5.948 72.458 C 5.990 72.298,5.990 72.035,5.948 71.875 C 5.906 71.715,5.872 71.846,5.872 72.167 M74.086 73.031 C 74.157 73.866,74.945 76.110,75.109 75.947 C 75.143 75.913,75.005 75.517,74.802 75.067 C 74.599 74.618,74.336 73.762,74.218 73.167 L 74.004 72.083 74.086 73.031 M79.879 74.167 C 79.879 74.579,79.911 74.748,79.951 74.542 C 79.991 74.335,79.991 73.998,79.951 73.792 C 79.911 73.585,79.879 73.754,79.879 74.167 M75.652 77.083 C 76.013 77.790,76.113 77.881,76.221 77.599 C 76.276 77.455,76.254 77.355,76.172 77.377 C 76.091 77.399,75.902 77.267,75.753 77.083 L 75.482 76.750 75.652 77.083 M75.208 79.615 C 75.369 79.657,75.631 79.657,75.792 79.615 C 75.952 79.573,75.821 79.539,75.500 79.539 C 75.179 79.539,75.048 79.573,75.208 79.615 " stroke="none" fill="#64a494" fill-rule="evenodd"></path></g></svg>