<?xml version="1.0" standalone="no"?>
<!DOCTYPE svg PUBLIC "-//W3C//DTD SVG 20010904//EN"
 "http://www.w3.org/TR/2001/REC-SVG-20010904/DTD/svg10.dtd">
<svg version="1.0" xmlns="http://www.w3.org/2000/svg"
 width="739.000000pt" height="738.000000pt" viewBox="0 0 739.000000 738.000000"
 preserveAspectRatio="xMidYMid meet">

<g transform="translate(0.000000,738.000000) scale(0.100000,-0.100000)"
fill="#2B755F" stroke="none">
<path d="M647 7303 c-89 -200 -113 -436 -96 -926 8 -236 8 -358 -1 -470 -16
-223 -12 -212 -110 -284 -46 -35 -84 -62 -86 -60 -1 1 -9 54 -18 117 -23 163
-35 490 -35 890 0 304 -7 460 -27 621 l-6 46 -117 53 c-64 29 -122 55 -128 57
-10 4 -13 -207 -13 -1033 l0 -1039 29 -62 c43 -91 91 -162 212 -316 135 -169
194 -254 230 -332 62 -129 59 -13 62 -2175 3 -1806 5 -1980 20 -2033 25 -85
53 -134 113 -197 168 -176 439 -172 606 9 60 64 90 131 109 241 9 47 13 645
16 2119 l4 2054 168 173 c226 232 301 348 329 514 33 187 34 1253 2 1820 -15
266 -15 270 -48 270 -18 0 -56 -23 -113 -69 l-86 -69 -6 -113 c-4 -63 -7 -307
-7 -544 0 -513 -22 -1030 -44 -1052 -8 -9 -22 10 -110 147 -71 111 -74 120
-86 205 -9 61 -14 273 -16 645 -1 307 -7 595 -13 645 -6 50 -11 96 -11 102 0
7 -30 28 -67 47 l-67 33 -53 -39 c-29 -22 -54 -47 -57 -56 -3 -10 -11 -82 -18
-162 -9 -105 -13 -324 -11 -788 l1 -643 -131 3 -132 3 -6 650 c-3 365 -12 739
-19 853 l-14 202 -61 0 -62 0 -26 -57z m813 -1954 c124 -6 230 -16 235 -21 11
-11 -336 -357 -472 -472 -98 -81 -88 -41 -105 -431 -10 -204 -12 -671 -10
-1715 3 -1329 -4 -1963 -26 -2270 l-7 -94 -105 -18 c-58 -9 -108 -17 -111 -18
-31 -1 -42 683 -44 2600 0 1015 -5 1852 -9 1860 -4 8 -38 38 -74 67 -196 152
-506 473 -481 497 23 23 841 33 1209 15z"/>
<path d="M7185 7304 c-396 -276 -707 -633 -899 -1034 -99 -206 -167 -429 -200
-651 -32 -214 -48 -1517 -26 -2134 12 -358 25 -392 255 -704 175 -239 202
-288 215 -396 21 -169 27 -510 17 -990 -10 -493 -2 -810 26 -1026 15 -108 39
-158 109 -226 181 -173 496 -141 626 65 64 101 63 52 63 3192 1 2604 -5 3328
-27 3818 l-7 142 -36 0 c-27 -1 -56 -14 -116 -56z m-80 -526 c3 -73 5 -1476 3
-3118 -5 -3212 -2 -3022 -53 -3345 -18 -114 -23 -135 -34 -135 -13 0 -148 271
-172 345 l-23 70 -6 1026 -5 1026 -39 44 c-22 24 -84 92 -139 150 -117 126
-197 231 -236 308 -61 121 -61 114 -71 766 -14 895 8 1546 60 1789 57 263 178
520 372 793 114 161 315 413 329 413 4 0 10 -60 14 -132z"/>
<path d="M3480 6390 c-283 -21 -602 -101 -867 -218 -136 -59 -169 -95 -214
-230 -18 -53 -34 -102 -36 -109 -4 -9 3 -10 29 -2 249 75 644 183 758 207 401
84 701 92 1040 26 388 -75 636 -194 1144 -553 197 -139 392 -271 401 -271 11
0 4 59 -15 134 -56 220 -179 365 -465 551 -547 356 -1138 510 -1775 465z"/>
<path d="M3580 5694 c-280 -21 -563 -95 -785 -206 -575 -289 -992 -828 -1115
-1443 -43 -211 -38 -537 11 -778 85 -420 339 -836 689 -1129 837 -701 2044
-635 2806 154 309 320 499 713 549 1138 72 604 -127 1191 -555 1634 -330 342
-729 545 -1205 615 -81 12 -315 21 -395 15z m435 -304 c646 -126 1164 -574
1366 -1180 69 -208 83 -297 83 -530 0 -184 -3 -218 -27 -331 -149 -702 -697
-1245 -1394 -1379 -399 -77 -773 -24 -1139 160 -171 86 -296 175 -433 305
-222 213 -355 426 -455 731 -64 193 -79 293 -79 509 0 167 3 205 26 317 60
283 187 552 364 770 83 103 259 266 360 335 253 174 565 286 878 317 99 10
344 -3 450 -24z"/>
<path d="M5595 2078 c-137 -115 -302 -249 -365 -297 -296 -227 -572 -373 -845
-450 -215 -60 -421 -86 -675 -86 -368 1 -609 59 -1275 308 -137 52 -252 93
-254 91 -1 -1 -13 -45 -25 -98 l-23 -95 106 -69 c320 -208 645 -331 1056 -399
138 -22 628 -26 765 -5 476 72 873 225 1225 470 109 76 338 264 407 334 122
123 169 228 167 372 -2 156 20 163 -264 -76z"/>
</g>
</svg>
